<svg width="1857" height="1544" viewBox="0 0 1857 1544" fill="none" xmlns="http://www.w3.org/2000/svg">
<mask id="mask0_1_3" style="mask-type:luminance" maskUnits="userSpaceOnUse" x="0" y="0" width="1857" height="1544">
<path d="M1856.98 0H0V1544H1856.98V0Z" fill="white"/>
</mask>
<g mask="url(#mask0_1_3)">
<path d="M928.75 1168.01C928.75 1168.01 900.001 911.342 1241.3 823.675C1582.6 735.982 1569.17 654.657 1569.17 654.657C1569.17 654.657 1630.74 855.567 1381.38 893.686C932.725 962.248 928.75 1168.01 928.75 1168.01Z" fill="url(#paint0_linear_1_3)"/>
<path d="M1575.85 704.404C1569.63 727.154 1526.69 795.717 1242.81 868.621C1003.26 930.212 942.674 1073.44 928.174 1156.62C928.289 1163.98 928.76 1168.03 928.76 1168.03C928.76 1168.03 932.725 962.275 1381.41 893.711C1551.03 867.776 1576.75 766.549 1575.85 704.404Z" fill="url(#paint1_linear_1_3)"/>
<path d="M928.603 1185.26C928.603 1185.26 906.32 986.705 1170.36 918.847C1434.39 851.032 1424.03 788.139 1424.03 788.139C1424.03 788.139 1471.61 943.525 1278.76 972.982C931.711 1026.04 928.603 1185.26 928.603 1185.26Z" fill="url(#paint2_linear_1_3)"/>
<path d="M1429.17 826.643C1424.35 844.229 1391.13 897.233 1171.55 953.636C986.227 1001.28 939.4 1112.09 928.143 1176.41C928.237 1182.05 928.603 1185.26 928.603 1185.26C928.603 1185.26 931.711 1026.04 1278.76 972.986C1409.96 952.961 1429.87 874.652 1429.17 826.643Z" fill="url(#paint3_linear_1_3)"/>
<path d="M928.436 1194.21C928.436 1194.21 911.655 1044.08 1111.26 992.77C1310.88 941.505 1303.04 893.953 1303.04 893.953C1303.04 893.953 1339.04 1011.42 1193.21 1033.7C930.811 1073.82 928.436 1194.21 928.436 1194.21Z" fill="url(#paint4_linear_1_3)"/>
<path d="M1306.96 923.094C1303.27 936.386 1278.21 976.483 1112.15 1019.11C972.062 1055.11 936.638 1138.89 928.143 1187.5C928.195 1191.79 928.436 1194.18 928.436 1194.18C928.436 1194.18 930.811 1073.8 1193.23 1033.7C1292.42 1018.61 1307.48 959.378 1306.96 923.094Z" fill="url(#paint5_linear_1_3)"/>
<path d="M928.959 1085.93C928.959 1085.93 887.781 717.84 1377.14 592.076C1866.54 466.41 1847.34 349.792 1847.34 349.792C1847.34 349.792 1935.6 637.864 1578.11 692.484C934.692 790.819 928.959 1085.93 928.959 1085.93Z" fill="url(#paint6_linear_1_3)"/>
<path d="M1856.88 421.181C1847.98 453.749 1786.35 552.081 1379.35 656.639C1035.85 744.888 949.004 950.285 928.174 1069.54C928.342 1080.06 928.928 1085.94 928.928 1085.94C928.928 1085.94 934.671 790.844 1578.07 692.487C1821.28 655.358 1858.16 510.173 1856.88 421.181Z" fill="url(#paint7_linear_1_3)"/>
<path d="M928.802 1110.57C928.802 1110.57 896.894 825.869 1275.48 728.576C1654.06 631.377 1639.17 541.125 1639.17 541.125C1639.17 541.125 1707.45 763.989 1430.91 806.255C933.248 882.274 928.802 1110.57 928.802 1110.57Z" fill="url(#paint8_linear_1_3)"/>
<path d="M1646.58 596.374C1639.7 621.583 1592.03 697.624 1277.19 778.492C1011.53 846.765 944.275 1005.7 928.195 1097.91C928.321 1106 928.802 1110.57 928.802 1110.57C928.802 1110.57 933.248 882.274 1430.94 806.279C1619.01 777.526 1647.57 665.247 1646.58 596.374Z" fill="url(#paint9_linear_1_3)"/>
<path d="M928.603 1123.42C928.603 1123.42 904.552 908.185 1190.69 834.628C1476.93 761.071 1465.72 692.895 1465.72 692.895C1465.72 692.895 1517.34 861.381 1308.26 893.346C931.941 950.836 928.603 1123.42 928.603 1123.42Z" fill="url(#paint10_linear_1_3)"/>
<path d="M1471.33 734.655C1466.08 753.69 1430.07 811.225 1192 872.336C991.134 923.985 940.331 1044.13 928.143 1113.87C928.227 1120 928.603 1123.42 928.603 1123.42C928.603 1123.42 931.941 950.836 1308.26 893.35C1450.49 871.635 1472.02 786.718 1471.33 734.655Z" fill="url(#paint11_linear_1_3)"/>
<path d="M928.227 1168.01C928.227 1168.01 956.986 911.342 615.679 823.675C274.383 735.982 287.784 654.657 287.784 654.657C287.784 654.657 226.272 855.567 475.595 893.686C924.251 962.248 928.227 1168.01 928.227 1168.01Z" fill="url(#paint12_linear_1_3)"/>
<path d="M281.141 704.404C287.324 727.154 330.259 795.717 614.141 868.621C853.718 930.212 914.302 1073.44 928.802 1156.62C928.687 1163.98 928.227 1168.03 928.227 1168.03C928.227 1168.03 924.22 962.275 475.564 893.711C305.946 867.776 280.241 766.549 281.141 704.404Z" fill="url(#paint13_linear_1_3)"/>
<path d="M928.373 1185.26C928.373 1185.26 950.626 986.705 686.59 918.847C422.585 851.032 432.911 788.139 432.911 788.139C432.911 788.139 385.33 943.525 578.226 972.982C925.297 1026.04 928.373 1185.26 928.373 1185.26Z" fill="url(#paint14_linear_1_3)"/>
<path d="M427.806 826.643C432.628 844.229 465.845 897.233 685.428 953.636C870.749 1001.28 917.576 1112.09 928.844 1176.41C928.75 1182.05 928.373 1185.26 928.373 1185.26C928.373 1185.26 925.297 1026.04 578.226 972.986C447.013 952.961 427.084 874.652 427.806 826.643Z" fill="url(#paint15_linear_1_3)"/>
<path d="M928.52 1194.21C928.52 1194.21 945.29 1044.08 745.699 992.77C546.077 941.505 553.934 893.953 553.934 893.953C553.934 893.953 517.934 1011.42 663.762 1033.7C926.166 1073.82 928.52 1194.21 928.52 1194.21Z" fill="url(#paint16_linear_1_3)"/>
<path d="M550.021 923.094C553.672 936.386 578.77 976.483 744.82 1019.11C884.915 1055.11 920.338 1138.89 928.833 1187.5C928.781 1191.79 928.52 1194.18 928.52 1194.18C928.52 1194.18 926.166 1073.8 663.751 1033.7C564.552 1018.61 549.498 959.378 550.021 923.094Z" fill="url(#paint17_linear_1_3)"/>
<path d="M927.997 1085.93C927.997 1085.93 969.164 717.841 479.833 592.076C-9.56161 466.413 9.64423 349.795 9.64423 349.795C9.64423 349.795 -78.6212 637.867 278.871 692.487C922.254 790.819 927.997 1085.93 927.997 1085.93Z" fill="url(#paint18_linear_1_3)"/>
<path d="M0.0698078 421.181C9.00631 453.749 70.6349 552.081 477.625 656.639C821.108 744.888 907.972 950.285 928.802 1069.54C928.603 1080.06 928.017 1085.94 928.017 1085.94C928.017 1085.94 922.242 790.822 278.871 692.487C35.6704 655.358 -1.17934 510.173 0.0698078 421.181Z" fill="url(#paint19_linear_1_3)"/>
<path d="M928.174 1110.57C928.174 1110.57 960.083 825.869 581.5 728.576C202.915 631.377 217.8 541.125 217.8 541.125C217.8 541.125 149.5 763.989 426.069 806.255C923.728 882.274 928.174 1110.57 928.174 1110.57Z" fill="url(#paint20_linear_1_3)"/>
<path d="M210.371 596.374C217.277 621.583 264.946 697.624 579.785 778.492C845.473 846.765 912.701 1005.7 928.781 1097.91C928.666 1106 928.174 1110.57 928.174 1110.57C928.174 1110.57 923.738 882.274 426.037 806.279C237.933 777.526 209.412 665.247 210.371 596.374Z" fill="url(#paint21_linear_1_3)"/>
<path d="M928.342 1123.42C928.342 1123.42 952.425 908.185 666.252 834.628C380.016 761.071 391.252 692.895 391.252 692.895C391.252 692.895 339.633 861.381 548.713 893.346C925.004 950.836 928.342 1123.42 928.342 1123.42Z" fill="url(#paint22_linear_1_3)"/>
<path d="M385.644 734.655C390.896 753.69 426.906 811.225 664.944 872.336C865.843 923.985 916.646 1044.13 928.834 1113.87C928.75 1120 928.342 1123.42 928.342 1123.42C928.342 1123.42 925.005 950.836 548.713 893.35C406.484 871.635 384.954 786.718 385.644 734.655Z" fill="url(#paint23_linear_1_3)"/>
<mask id="mask1_1_3" style="mask-type:luminance" maskUnits="userSpaceOnUse" x="635" y="638" width="588" height="597">
<path d="M1222.79 638.332H635.023V1234.84H1222.79V638.332Z" fill="white"/>
</mask>
<g mask="url(#mask1_1_3)">
<path d="M781.656 647.673H742.393C736.963 647.673 732.569 652.133 732.569 657.635V1076.06H791.47V657.635C791.47 652.132 787.076 647.673 781.656 647.673Z" fill="#7DF5A5"/>
<path d="M791.47 1076.06H762.02V647.673H781.656C787.076 647.673 791.47 652.133 791.47 657.635V1076.06Z" fill="#64DCA0"/>
<path d="M1076.15 647.673H1115.42C1120.84 647.673 1125.23 652.133 1125.23 657.635V1076.06H1066.33V657.635C1066.33 652.132 1070.73 647.673 1076.15 647.673Z" fill="#7DF5A5"/>
<path d="M1066.33 1076.06H1095.78V647.673H1076.15C1070.73 647.673 1066.33 652.133 1066.33 657.635V1076.06Z" fill="#64DCA0"/>
<path d="M1025.54 1225.49H832.26C768.37 1225.49 718.456 1169.52 724.807 1105L760.251 745.314C761.256 735.13 769.709 727.371 779.794 727.371H1078.02C1088.1 727.371 1096.55 735.127 1097.55 745.314L1133 1105C1139.35 1169.52 1089.43 1225.49 1025.54 1225.49Z" fill="#00C3FF"/>
<path d="M1078.02 727.372H1076.15H779.794C778.392 727.372 777.032 727.554 775.714 727.838C775.641 727.854 775.568 727.883 775.505 727.898C767.407 729.741 761.109 736.618 760.251 745.313L724.807 1105C718.456 1169.52 768.37 1225.49 832.26 1225.49H997.62C1019.31 1225.49 1036.88 1207.65 1036.88 1185.65V1046.18H825.125C813.596 1046.18 804.557 1036.15 805.562 1024.51L811.012 961.737C811.703 953.684 820.731 949.008 827.28 953.6C847.807 967.97 872.632 976.435 899.457 976.435H958.357C1028.84 976.435 1085.97 918.45 1085.97 846.922V729.142C1083.52 728.037 1080.84 727.372 1078.02 727.372Z" fill="#00AAF0"/>
<path d="M958.357 946.547H899.457C845.233 946.547 801.283 901.943 801.283 846.922V727.372H1056.52V846.922C1056.52 901.944 1012.57 946.547 958.357 946.547Z" fill="#FFDC64"/>
<path d="M948.533 906.697H909.27C903.851 906.697 899.457 911.158 899.457 916.66V976.435C899.457 992.936 912.639 1006.32 928.907 1006.32C945.165 1006.32 958.346 992.936 958.346 976.435V916.66C958.357 911.157 953.952 906.697 948.533 906.697Z" fill="#FFC850"/>
<path d="M1027.07 1185.65H830.733C825.314 1185.65 820.92 1181.18 820.92 1175.68V1056.13C820.92 1050.63 825.314 1046.18 830.733 1046.18H1027.07C1032.49 1046.18 1036.88 1050.63 1036.88 1056.13V1175.68C1036.88 1181.18 1032.49 1185.65 1027.07 1185.65Z" fill="#7DF5A5"/>
<path d="M1027.07 1046.18H830.733C825.314 1046.18 820.92 1050.63 820.92 1056.13V1086.02H1036.88V1056.13C1036.88 1050.63 1032.49 1046.18 1027.07 1046.18Z" fill="#FFDC64"/>
<path d="M816.379 899.822L831.068 730.37C831.162 729.337 831.361 728.348 831.58 727.371H801.283V846.921C801.283 866.382 806.869 884.482 816.379 899.822Z" fill="#FFC850"/>
<path d="M928.907 1006.32C912.639 1006.32 899.457 992.936 899.457 976.435C899.457 970.933 903.851 966.472 909.27 966.472H948.533C953.952 966.472 958.357 970.933 958.357 976.435C958.357 992.936 945.165 1006.32 928.907 1006.32Z" fill="#E1A546"/>
<path d="M1036.88 1086.02H820.92V1105.95H1036.88V1086.02Z" fill="#64DCA0"/>
<path d="M928.907 866.847C956.013 866.847 977.983 844.545 977.983 817.034C977.983 789.523 956.013 767.221 928.907 767.221C901.79 767.221 879.82 789.523 879.82 817.034C879.82 844.545 901.79 866.847 928.907 866.847Z" fill="#FF507D"/>
<path d="M1142.15 1104.07L1134.44 1025.78V657.635C1134.44 646.991 1125.9 638.332 1115.42 638.332H1076.15C1065.66 638.332 1057.13 646.991 1057.13 657.635V718.032H997.003V707.446C997.003 680.323 975.263 658.257 948.533 658.257H909.27C882.54 658.257 860.8 680.324 860.8 707.446V718.032H800.676V657.635C800.676 646.991 792.139 638.332 781.656 638.332H742.393C731.9 638.332 723.363 646.991 723.363 657.635V1025.78L715.653 1104.07C712.368 1137.45 723.196 1170.84 745.364 1195.71C767.543 1220.57 799.211 1234.83 832.26 1234.83H1025.54C1058.59 1234.83 1090.26 1220.57 1112.44 1195.71C1134.61 1170.84 1145.44 1137.44 1142.15 1104.07ZM1075.54 657.635C1075.54 657.291 1075.81 657.012 1076.15 657.012H1115.42C1115.76 657.012 1116.03 657.291 1116.03 657.635V838.983L1106.71 744.386C1105.23 729.363 1092.9 718.033 1078.02 718.033H1075.54V657.635ZM879.203 707.448C879.203 690.625 892.688 676.937 909.27 676.937H948.533C965.115 676.937 978.601 690.625 978.601 707.448V718.033H879.203V707.448ZM741.776 657.635C741.776 657.291 742.048 657.012 742.393 657.012H781.656C781.991 657.012 782.263 657.291 782.263 657.635V718.032H779.794C764.907 718.032 752.572 729.362 751.097 744.386L741.776 838.981V657.635ZM1098.79 1183.17C1080.1 1204.13 1053.4 1216.16 1025.54 1216.16H832.26C804.4 1216.16 777.712 1204.13 759.017 1183.17C740.332 1162.21 731.199 1134.06 733.971 1105.94L769.416 746.243C769.95 740.81 774.406 736.712 779.794 736.712H791.459H791.47C791.48 736.712 791.48 736.712 791.48 736.712H792.087V846.922C792.087 903.859 835.336 950.729 890.25 955.483V976.435C890.25 998.068 907.596 1015.66 928.907 1015.66C950.218 1015.66 967.553 998.068 967.553 976.435V955.482C1022.47 950.728 1065.72 903.858 1065.72 846.921V807.071C1065.72 801.913 1061.6 797.73 1056.52 797.73C1051.44 797.73 1047.31 801.911 1047.31 807.071V846.921C1047.31 893.551 1012.3 932.035 967.553 936.724V916.658C967.553 906.015 959.027 897.356 948.533 897.356H909.27C898.777 897.356 890.25 906.015 890.25 916.658V936.724C845.505 932.036 810.489 893.552 810.489 846.921V736.712H1047.31V767.223C1047.31 772.38 1051.44 776.563 1056.52 776.563C1061.59 776.563 1065.72 772.381 1065.72 767.223V736.712H1066.32H1066.33C1066.34 736.712 1066.34 736.712 1066.34 736.712H1078.02C1083.4 736.712 1087.86 740.811 1088.4 746.243L1123.83 1105.94C1126.6 1134.06 1117.48 1162.21 1098.79 1183.17ZM908.653 975.811H949.15V976.433C949.15 987.76 940.07 996.98 928.896 996.98C917.734 996.98 908.653 987.76 908.653 976.433V975.811ZM949.15 957.132H908.653V916.66C908.653 916.316 908.935 916.038 909.27 916.038H948.533C948.879 916.038 949.15 916.316 949.15 916.66V957.132Z" fill="black"/>
<path d="M1027.07 1036.83H830.733C820.25 1036.83 811.713 1045.49 811.713 1056.13V1175.68C811.713 1186.33 820.25 1194.99 830.733 1194.99H1027.07C1037.55 1194.99 1046.09 1186.33 1046.09 1175.68V1056.13C1046.09 1045.49 1037.55 1036.83 1027.07 1036.83ZM1027.68 1175.68C1027.68 1176.03 1027.4 1176.31 1027.07 1176.31H830.733C830.398 1176.31 830.126 1176.03 830.126 1175.68V1056.13C830.126 1055.8 830.398 1055.51 830.733 1055.51H1027.07C1027.4 1055.51 1027.68 1055.8 1027.68 1056.13V1175.68Z" fill="black"/>
<path d="M997.62 1076.68H860.183C855.109 1076.68 850.987 1080.87 850.987 1086.02C850.987 1091.17 855.098 1095.36 860.183 1095.36H997.62C1002.7 1095.36 1006.83 1091.19 1006.83 1086.02C1006.83 1080.87 1002.7 1076.68 997.62 1076.68Z" fill="black"/>
<path d="M928.907 757.882C896.768 757.882 870.613 784.419 870.613 817.034C870.613 849.65 896.768 876.186 928.907 876.186C961.046 876.186 987.19 849.65 987.19 817.034C987.19 784.419 961.046 757.882 928.907 757.882ZM968.787 817.034C968.787 822.172 967.825 827.084 966.099 831.609L938.103 803.203V777.663C955.668 781.891 968.787 797.931 968.787 817.034ZM919.7 856.407C913.151 854.831 907.23 851.618 902.365 847.211L919.7 829.619V856.407ZM938.103 829.619L955.438 847.21C950.584 851.617 944.652 854.828 938.103 856.406V829.619ZM919.7 777.662V803.202L891.704 831.61C889.978 827.085 889.026 822.173 889.026 817.035C889.026 797.932 902.135 781.891 919.7 777.662Z" fill="black"/>
</g>
</g>
<defs>
<linearGradient id="paint0_linear_1_3" x1="1575.47" y1="648.338" x2="1025.27" y2="1270.01" gradientUnits="userSpaceOnUse">
<stop stop-color="#29D3DA"/>
<stop offset="0.519" stop-color="#0077FF"/>
<stop offset="0.999" stop-color="#064093"/>
<stop offset="1" stop-color="#084698"/>
</linearGradient>
<linearGradient id="paint1_linear_1_3" x1="803.731" y1="1298.45" x2="1463.62" y2="503.27" gradientUnits="userSpaceOnUse">
<stop stop-color="#29D3DA"/>
<stop offset="0.519" stop-color="#0077FF"/>
<stop offset="0.999" stop-color="#064093"/>
<stop offset="1" stop-color="#084698"/>
</linearGradient>
<linearGradient id="paint2_linear_1_3" x1="1428.87" y1="783.202" x2="1003.35" y2="1264.1" gradientUnits="userSpaceOnUse">
<stop stop-color="#29D3DA"/>
<stop offset="0.519" stop-color="#0077FF"/>
<stop offset="0.999" stop-color="#064093"/>
<stop offset="1" stop-color="#084698"/>
</linearGradient>
<linearGradient id="paint3_linear_1_3" x1="831.894" y1="1286.21" x2="1342.25" y2="671.055" gradientUnits="userSpaceOnUse">
<stop stop-color="#29D3DA"/>
<stop offset="0.519" stop-color="#0077FF"/>
<stop offset="0.999" stop-color="#064093"/>
<stop offset="1" stop-color="#084698"/>
</linearGradient>
<linearGradient id="paint4_linear_1_3" x1="1306.73" y1="890.277" x2="984.848" y2="1253.87" gradientUnits="userSpaceOnUse">
<stop stop-color="#29D3DA"/>
<stop offset="0.519" stop-color="#0077FF"/>
<stop offset="0.999" stop-color="#064093"/>
<stop offset="1" stop-color="#084698"/>
</linearGradient>
<linearGradient id="paint5_linear_1_3" x1="855.433" y1="1270.5" x2="1241.19" y2="805.523" gradientUnits="userSpaceOnUse">
<stop stop-color="#29D3DA"/>
<stop offset="0.519" stop-color="#0077FF"/>
<stop offset="0.999" stop-color="#064093"/>
<stop offset="1" stop-color="#084698"/>
</linearGradient>
<linearGradient id="paint6_linear_1_3" x1="1856.36" y1="340.695" x2="1067.33" y2="1232.17" gradientUnits="userSpaceOnUse">
<stop offset="0.012" stop-color="#E0B386"/>
<stop offset="0.519" stop-color="#DA498C"/>
<stop offset="1" stop-color="#961484"/>
</linearGradient>
<linearGradient id="paint7_linear_1_3" x1="749.81" y1="1273.08" x2="1695.73" y2="132.705" gradientUnits="userSpaceOnUse">
<stop offset="0.012" stop-color="#E0B386"/>
<stop offset="0.519" stop-color="#DA498C"/>
<stop offset="1" stop-color="#961484"/>
</linearGradient>
<linearGradient id="paint8_linear_1_3" x1="1646.06" y1="534.152" x2="1035.9" y2="1223.7" gradientUnits="userSpaceOnUse">
<stop offset="0.012" stop-color="#E0B386"/>
<stop offset="0.519" stop-color="#DA498C"/>
<stop offset="1" stop-color="#961484"/>
</linearGradient>
<linearGradient id="paint9_linear_1_3" x1="790.256" y1="1255.25" x2="1522.04" y2="373.218" gradientUnits="userSpaceOnUse">
<stop offset="0.012" stop-color="#E0B386"/>
<stop offset="0.519" stop-color="#DA498C"/>
<stop offset="1" stop-color="#961484"/>
</linearGradient>
<linearGradient id="paint10_linear_1_3" x1="1471.04" y1="687.582" x2="1009.54" y2="1209.01" gradientUnits="userSpaceOnUse">
<stop offset="0.012" stop-color="#E0B386"/>
<stop offset="0.519" stop-color="#DA498C"/>
<stop offset="1" stop-color="#961484"/>
</linearGradient>
<linearGradient id="paint11_linear_1_3" x1="823.786" y1="1232.83" x2="1377.11" y2="566.024" gradientUnits="userSpaceOnUse">
<stop offset="0.012" stop-color="#E0B386"/>
<stop offset="0.519" stop-color="#DA498C"/>
<stop offset="1" stop-color="#961484"/>
</linearGradient>
<linearGradient id="paint12_linear_1_3" x1="281.528" y1="648.319" x2="831.638" y2="1269.98" gradientUnits="userSpaceOnUse">
<stop stop-color="#29D3DA"/>
<stop offset="0.519" stop-color="#0077FF"/>
<stop offset="0.999" stop-color="#064093"/>
<stop offset="1" stop-color="#084698"/>
</linearGradient>
<linearGradient id="paint13_linear_1_3" x1="1053.12" y1="1298.48" x2="393.47" y2="503.316" gradientUnits="userSpaceOnUse">
<stop stop-color="#29D3DA"/>
<stop offset="0.519" stop-color="#0077FF"/>
<stop offset="0.999" stop-color="#064093"/>
<stop offset="1" stop-color="#084698"/>
</linearGradient>
<linearGradient id="paint14_linear_1_3" x1="428.088" y1="783.223" x2="853.71" y2="1264.16" gradientUnits="userSpaceOnUse">
<stop stop-color="#29D3DA"/>
<stop offset="0.519" stop-color="#0077FF"/>
<stop offset="0.999" stop-color="#064093"/>
<stop offset="1" stop-color="#084698"/>
</linearGradient>
<linearGradient id="paint15_linear_1_3" x1="1025" y1="1286.21" x2="514.756" y2="671.053" gradientUnits="userSpaceOnUse">
<stop stop-color="#29D3DA"/>
<stop offset="0.519" stop-color="#0077FF"/>
<stop offset="0.999" stop-color="#064093"/>
<stop offset="1" stop-color="#084698"/>
</linearGradient>
<linearGradient id="paint16_linear_1_3" x1="550.241" y1="890.244" x2="872.023" y2="1253.82" gradientUnits="userSpaceOnUse">
<stop stop-color="#29D3DA"/>
<stop offset="0.519" stop-color="#0077FF"/>
<stop offset="0.999" stop-color="#064093"/>
<stop offset="1" stop-color="#084698"/>
</linearGradient>
<linearGradient id="paint17_linear_1_3" x1="1001.56" y1="1270.5" x2="615.729" y2="805.454" gradientUnits="userSpaceOnUse">
<stop stop-color="#29D3DA"/>
<stop offset="0.519" stop-color="#0077FF"/>
<stop offset="0.999" stop-color="#064093"/>
<stop offset="1" stop-color="#084698"/>
</linearGradient>
<linearGradient id="paint18_linear_1_3" x1="0.639715" y1="340.705" x2="789.614" y2="1232.15" gradientUnits="userSpaceOnUse">
<stop offset="0.012" stop-color="#E0B386"/>
<stop offset="0.519" stop-color="#DA498C"/>
<stop offset="1" stop-color="#961484"/>
</linearGradient>
<linearGradient id="paint19_linear_1_3" x1="1107.12" y1="1273.1" x2="161.234" y2="132.679" gradientUnits="userSpaceOnUse">
<stop offset="0.012" stop-color="#E0B386"/>
<stop offset="0.519" stop-color="#DA498C"/>
<stop offset="1" stop-color="#961484"/>
</linearGradient>
<linearGradient id="paint20_linear_1_3" x1="210.848" y1="534.117" x2="821.059" y2="1223.67" gradientUnits="userSpaceOnUse">
<stop offset="0.012" stop-color="#E0B386"/>
<stop offset="0.519" stop-color="#DA498C"/>
<stop offset="1" stop-color="#961484"/>
</linearGradient>
<linearGradient id="paint21_linear_1_3" x1="1066.59" y1="1255.26" x2="335.011" y2="373.24" gradientUnits="userSpaceOnUse">
<stop offset="0.012" stop-color="#E0B386"/>
<stop offset="0.519" stop-color="#DA498C"/>
<stop offset="1" stop-color="#961484"/>
</linearGradient>
<linearGradient id="paint22_linear_1_3" x1="385.99" y1="687.564" x2="847.318" y2="1208.97" gradientUnits="userSpaceOnUse">
<stop offset="0.012" stop-color="#E0B386"/>
<stop offset="0.519" stop-color="#DA498C"/>
<stop offset="1" stop-color="#961484"/>
</linearGradient>
<linearGradient id="paint23_linear_1_3" x1="1032.95" y1="1232.87" x2="479.866" y2="565.881" gradientUnits="userSpaceOnUse">
<stop offset="0.012" stop-color="#E0B386"/>
<stop offset="0.519" stop-color="#DA498C"/>
<stop offset="1" stop-color="#961484"/>
</linearGradient>
</defs>
</svg>
